<?xml version="1.0"?>
<svg xmlns="http://www.w3.org/2000/svg" height="512px" viewBox="-106 0 512 512.00083" width="512px" class=""><g><path d="m260.339844 269.820312c22.859375 29.230469 34.359375 67.761719 27.859375 108.980469-9.917969 62.878907-62.902344 123.199219-138.199219 123.199219-77.320312 0-140-68.679688-140-146 0-33.25 11.589844-63.789062 30.949219-87.808594 20.039062-24.847656 29.050781-62.828125 29.050781-94.75v-.570312c0-44.882813 32.503906-82.898438 80-82.859375 42.398438.078125 79.726562 32.503906 80 82.941406.179688 33.019531 10 70.859375 30.339844 96.867187zm0 0" fill="#c3ea21" data-original="#C3EA21" class="" data-old_color="#c3ea21" style="fill:#A1A1A1"/><path d="m235.429688 10.214844s2.210937 38.777344-21.21875 62.207031c-14.011719 14.011719-34.023438 17.640625-47.851563 19.269531v.011719c-5.339844-1.109375-10.820313-1.679687-16.359375-1.691406h.519531c-.050781-9.019531 1.269531-40.019531 21.269531-60.019531 23.429688-23.429688 63.640626-19.777344 63.640626-19.777344zm0 0" fill="#61d7a8" data-original="#61D7A8" class="active-path" data-old_color="#61d7a8" style="fill:#A1A1A1"/><path d="m150 276.003906c44.179688 0 80 35.816406 80 79.996094s-35.820312 80-80 80-80-35.820312-80-80 35.820312-79.996094 80-79.996094zm0 0" fill="#68544f" data-original="#68544F" class="" data-old_color="#68544f" style="fill:#A1A1A1"/><path d="m.226562 347.695312c-.148437 2.753907-.226562 5.546876-.226562 8.304688 0 84.5625 68.691406 156 150 156 78.617188 0 137.175781-62.53125 148.078125-131.640625 6.644531-42.136719-3.960937-83.582031-29.863281-116.699219-17.21875-22.019531-28.03125-56.796875-28.214844-90.761718-.183594-33.695313-15.945312-62.4375-41.324219-78.714844 7.988281-3.273438 15.851563-7.9375 22.605469-14.691406 26.292969-26.292969 24.230469-68.082032 24.128906-69.847657-.277344-4.949219-4.144531-8.941406-9.078125-9.390625-1.832031-.1679685-45.175781-3.769531-71.613281 22.667969-2.988281 2.988281-5.609375 6.179687-7.910156 9.496094-7.132813-18.917969-25.425782-32.41406275-46.808594-32.41406275-5.523438 0-10 4.47656275-10 9.99999975 0 5.523438 4.476562 10 10 10 16.542969 0 30 13.457032 30 30v30.542969c-48.511719 5.230469-80 45.675781-80 92.324219v.570312c0 26.683594-7.050781 63.9375-26.835938 88.476563-1.542968 1.914062-3.058593 3.890625-4.5 5.871093-3.25 4.464844-2.265624 10.71875 2.199219 13.96875 4.464844 3.25 10.722657 2.265626 13.972657-2.199218 1.25-1.71875 2.5625-3.429688 3.898437-5.089844 23.050781-28.585938 31.265625-70.929688 31.265625-101.027344v-.570312c0-39.472656 27.964844-72.859375 69.917969-72.859375h.0625c38.101562.070312 69.78125 28.746093 70.019531 72.996093.210938 38.757813 12.347656 77.25 32.464844 102.976563 22.445312 28.699219 31.628906 64.664063 25.855468 101.257813-9.410156 59.671874-59.105468 114.757812-128.320312 114.757812-70.464844 0-130-62.277344-130-136 0-2.394531.066406-4.824219.199219-7.214844.300781-5.515625-3.925781-10.230468-9.441407-10.53125-5.496093-.289062-10.230468 3.925782-10.53125 9.441406zm178.636719-310.628906c13.484375-13.488281 34.351563-16.445312 46.335938-16.957031-.902344 11.648437-4.507813 31.6875-18.0625 45.242187-11.101563 11.105469-27.242188 14.566407-40.464844 16.226563-1.894531-.355469-3.800781-.652344-5.71875-.886719 1.121094-11.976562 5.015625-30.734375 17.910156-43.625zm0 0" data-original="#000000" class="" style="fill:#A1A1A1" data-old_color="#000000"/><path d="m150 446c49.625 0 90-40.371094 90-90 0-49.625-40.375-89.996094-90-89.996094s-90 40.371094-90 89.996094c0 49.628906 40.375 90 90 90zm0-159.996094c38.597656 0 70 31.398438 70 69.996094s-31.402344 70-70 70-70-31.402344-70-70 31.402344-69.996094 70-69.996094zm0 0" data-original="#000000" class="" style="fill:#A1A1A1" data-old_color="#000000"/><path d="m18 319.003906c5.519531 0 10-4.480468 10-10 0-5.523437-4.480469-10-10-10s-10 4.476563-10 10c0 5.519532 4.480469 10 10 10zm0 0" data-original="#000000" class="" style="fill:#A1A1A1" data-old_color="#000000"/></g> </svg>
