<?xml version="1.0"?>
<svg xmlns="http://www.w3.org/2000/svg" id="Capa_1" enable-background="new 0 0 511.9 511.9" height="512px" viewBox="0 0 511.9 511.9" width="512px"><g transform="matrix(6.12323e-17 -1 1 6.12323e-17 -2.84217e-14 511.9)"><path d="m437.249 74.65c-.755-.755-1.526-1.489-2.289-2.234-46.784 37.492-104.109 59.298-164.01 62.428v106.106h240.95c-3.602-62.845-29.777-121.426-74.651-166.3z" data-original="#000000" class="active-path" fill="#A1A1A1"/><path d="m240.95 240.95v-106.105c-59.902-3.13-117.226-24.936-164.01-62.428-.763.745-1.534 1.479-2.289 2.234-44.874 44.873-71.049 103.454-74.651 166.299z" data-original="#000000" class="active-path" fill="#A1A1A1"/><path d="m240.95 104.798v-104.798c-51.599 2.957-100.316 21.14-140.938 52.392 40.649 31.17 89.707 49.415 140.938 52.406z" data-original="#000000" class="active-path" fill="#A1A1A1"/><path d="m270.95 0v104.798c51.231-2.992 100.288-21.236 140.938-52.407-40.623-31.251-89.339-49.434-140.938-52.391z" data-original="#000000" class="active-path" fill="#A1A1A1"/><path d="m270.95 270.95v106.104c59.902 3.13 117.227 24.936 164.011 62.428.763-.744 1.533-1.478 2.288-2.233 44.874-44.874 71.049-103.455 74.65-166.299z" data-original="#000000" class="active-path" fill="#A1A1A1"/><path d="m76.94 439.484c46.784-37.492 104.108-59.298 164.01-62.429v-106.105h-240.95c3.602 62.845 29.777 121.426 74.65 166.299.756.756 1.527 1.49 2.29 2.235z" data-original="#000000" class="active-path" fill="#A1A1A1"/><path d="m270.95 407.101v104.798c51.599-2.957 100.317-21.14 140.939-52.392-40.65-31.171-89.708-49.415-140.939-52.406z" data-original="#000000" class="active-path" fill="#A1A1A1"/><path d="m240.95 511.899v-104.798c-51.231 2.992-100.288 21.237-140.937 52.407 40.622 31.252 89.338 49.434 140.937 52.391z" data-original="#000000" class="active-path" fill="#A1A1A1"/></g> </svg>
